HIERARCHY
ROOT Hips
{
    OFFSET   0.000000   0.000000   0.000000
    CHANNELS 6 Xposition Yposition Zposition Zrotation Xrotation Yrotation
    JOINT Chest
    {
        OFFSET   0.000000   8.007240   0.000000
        CHANNELS 3 Zrotation Xrotation Yrotation
        JOINT Chest2
        {
            OFFSET   0.000000  22.077100   0.000000
            CHANNELS 3 Zrotation Xrotation Yrotation
            JOINT Neck
            {
                OFFSET   0.000000  23.254800   0.000000
                CHANNELS 3 Zrotation Xrotation Yrotation
                JOINT Head
                {
                    OFFSET   0.000000  14.370000   1.956600
                    CHANNELS 3 Zrotation Xrotation Yrotation
                    End Site
                    {
                        OFFSET   0.000000  19.566000   0.000000
                    }
                }
            }
            JOINT LeftCollar
            {
                OFFSET   3.911900  19.017000  -0.467064
                CHANNELS 3 Zrotation Xrotation Yrotation
                JOINT LeftShoulder
                {
                    OFFSET  10.383700   0.000000   0.000000
                    CHANNELS 3 Zrotation Xrotation Yrotation
                    JOINT LeftElbow
                    {
                        OFFSET  26.662100   0.001476   0.000517
                        CHANNELS 3 Zrotation Xrotation Yrotation
                        JOINT LeftWrist
                        {
                            OFFSET  28.869000  -0.000025  -0.000106
                            CHANNELS 3 Zrotation Xrotation Yrotation
                            JOINT LeftFinger0
                            {
                                OFFSET   2.044660  -2.323460   3.252850
                                CHANNELS 3 Zrotation Xrotation Yrotation
                                JOINT LeftFinger01
                                {
                                    OFFSET   3.088130   0.000000   0.000000
                                    CHANNELS 3 Zrotation Xrotation Yrotation
                                    JOINT LeftFinger02
                                    {
                                        OFFSET   2.639460   0.000000   0.000000
                                        CHANNELS 3 Zrotation Xrotation Yrotation
                                        End Site
                                        {
                                            OFFSET   2.582190   0.000000   0.000000
                                        }
                                    }
                                }
                            }
                            JOINT LeftFinger1
                            {
                                OFFSET   8.364480   0.000000   3.252850
                                CHANNELS 3 Zrotation Xrotation Yrotation
                                JOINT LeftFinger11
                                {
                                    OFFSET   4.646930   0.000000   0.000000
                                    CHANNELS 3 Zrotation Xrotation Yrotation
                                    JOINT LeftFinger12
                                    {
                                        OFFSET   2.323460   0.000000   0.000000
                                        CHANNELS 3 Zrotation Xrotation Yrotation
                                        End Site
                                        {
                                            OFFSET   2.273050   0.000000   0.000000
                                        }
                                    }
                                }
                            }
                            JOINT LeftFinger2
                            {
                                OFFSET   8.364490   0.000015   1.078090
                                CHANNELS 3 Zrotation Xrotation Yrotation
                                JOINT LeftFinger21
                                {
                                    OFFSET   5.111620   0.000000   0.000000
                                    CHANNELS 3 Zrotation Xrotation Yrotation
                                    JOINT LeftFinger22
                                    {
                                        OFFSET   2.788160   0.000016   0.000000
                                        CHANNELS 3 Zrotation Xrotation Yrotation
                                        End Site
                                        {
                                            OFFSET   2.727660   0.000000   0.000000
                                        }
                                    }
                                }
                            }
                            JOINT LeftFinger3
                            {
                                OFFSET   7.899780   0.000017  -1.078090
                                CHANNELS 3 Zrotation Xrotation Yrotation
                                JOINT LeftFinger31
                                {
                                    OFFSET   4.646930   0.000000   0.000000
                                    CHANNELS 3 Zrotation Xrotation Yrotation
                                    JOINT LeftFinger32
                                    {
                                        OFFSET   2.323470   0.000000   0.000000
                                        CHANNELS 3 Zrotation Xrotation Yrotation
                                        End Site
                                        {
                                            OFFSET   2.273050   0.000000   0.000000
                                        }
                                    }
                                }
                            }
                            JOINT LeftFinger4
                            {
                                OFFSET   7.435090   0.000000  -3.252850
                                CHANNELS 3 Zrotation Xrotation Yrotation
                                JOINT LeftFinger41
                                {
                                    OFFSET   3.717550   0.000000   0.000000
                                    CHANNELS 3 Zrotation Xrotation Yrotation
                                    JOINT LeftFinger42
                                    {
                                        OFFSET   1.858770   0.000000   0.000000
                                        CHANNELS 3 Zrotation Xrotation Yrotation
                                        End Site
                                        {
                                            OFFSET   1.818440   0.000000   0.000000
                                        }
                                    }
                                }
                            }
                        }
                    }
                }
            }
            JOINT RightCollar
            {
                OFFSET  -3.911900  19.017000  -0.467063
                CHANNELS 3 Zrotation Xrotation Yrotation
                JOINT RightShoulder
                {
                    OFFSET -10.383700   0.000019   0.000000
                    CHANNELS 3 Zrotation Xrotation Yrotation
                    JOINT RightElbow
                    {
                        OFFSET -26.662100   0.001175   0.000102
                        CHANNELS 3 Zrotation Xrotation Yrotation
                        JOINT RightWrist
                        {
                            OFFSET -28.869000   0.000016  -0.000079
                            CHANNELS 3 Zrotation Xrotation Yrotation
                            JOINT RightFinger0
                            {
                                OFFSET  -2.044660  -2.323490   3.252850
                                CHANNELS 3 Zrotation Xrotation Yrotation
                                JOINT RightFinger01
                                {
                                    OFFSET  -3.088140   0.000000   0.000000
                                    CHANNELS 3 Zrotation Xrotation Yrotation
                                    JOINT RightFinger02
                                    {
                                        OFFSET  -2.639460   0.000000   0.000000
                                        CHANNELS 3 Zrotation Xrotation Yrotation
                                        End Site
                                        {
                                            OFFSET  -2.582190   0.000000   0.000000
                                        }
                                    }
                                }
                            }
                            JOINT RightFinger1
                            {
                                OFFSET  -8.364480   0.000000   3.252850
                                CHANNELS 3 Zrotation Xrotation Yrotation
                                JOINT RightFinger11
                                {
                                    OFFSET  -4.646930   0.000000   0.000000
                                    CHANNELS 3 Zrotation Xrotation Yrotation
                                    JOINT RightFinger12
                                    {
                                        OFFSET  -2.323470   0.000000   0.000000
                                        CHANNELS 3 Zrotation Xrotation Yrotation
                                        End Site
                                        {
                                            OFFSET  -2.273050   0.000000   0.000000
                                        }
                                    }
                                }
                            }
                            JOINT RightFinger2
                            {
                                OFFSET  -8.364480   0.000000   1.078090
                                CHANNELS 3 Zrotation Xrotation Yrotation
                                JOINT RightFinger21
                                {
                                    OFFSET  -5.111620   0.000000   0.000000
                                    CHANNELS 3 Zrotation Xrotation Yrotation
                                    JOINT RightFinger22
                                    {
                                        OFFSET  -2.788160   0.000000   0.000000
                                        CHANNELS 3 Zrotation Xrotation Yrotation
                                        End Site
                                        {
                                            OFFSET  -2.727660   0.000000   0.000000
                                        }
                                    }
                                }
                            }
                            JOINT RightFinger3
                            {
                                OFFSET  -7.899780   0.000000  -1.078090
                                CHANNELS 3 Zrotation Xrotation Yrotation
                                JOINT RightFinger31
                                {
                                    OFFSET  -4.646930   0.000000   0.000000
                                    CHANNELS 3 Zrotation Xrotation Yrotation
                                    JOINT RightFinger32
                                    {
                                        OFFSET  -2.323470   0.000000   0.000000
                                        CHANNELS 3 Zrotation Xrotation Yrotation
                                        End Site
                                        {
                                            OFFSET  -2.273050   0.000000   0.000000
                                        }
                                    }
                                }
                            }
                            JOINT RightFinger4
                            {
                                OFFSET  -7.435090   0.000000  -3.252850
                                CHANNELS 3 Zrotation Xrotation Yrotation
                                JOINT RightFinger41
                                {
                                    OFFSET  -3.717550   0.000000   0.000000
                                    CHANNELS 3 Zrotation Xrotation Yrotation
                                    JOINT RightFinger42
                                    {
                                        OFFSET  -1.858770   0.000000   0.000000
                                        CHANNELS 3 Zrotation Xrotation Yrotation
                                        End Site
                                        {
                                            OFFSET  -1.818440   0.000000   0.000000
                                        }
                                    }
                                }
                            }
                        }
                    }
                }
            }
        }
    }
    JOINT LeftHip
    {
        OFFSET   9.783040   0.000000   0.000000
        CHANNELS 3 Zrotation Xrotation Yrotation
        JOINT LeftKnee
        {
            OFFSET   0.000032 -41.789100  -0.002222
            CHANNELS 3 Zrotation Xrotation Yrotation
            JOINT LeftAnkle
            {
                OFFSET   0.000087 -41.133200  -0.000135
                CHANNELS 3 Zrotation Xrotation Yrotation
                JOINT LeftToe
                {
                    OFFSET   0.000000  -6.358960  14.674500
                    CHANNELS 3 Zrotation Xrotation Yrotation
                    End Site
                    {
                        OFFSET   0.000000   0.000000   3.913200
                    }
                }
            }
        }
    }
    JOINT RightHip
    {
        OFFSET  -9.783040   0.000000   0.000000
        CHANNELS 3 Zrotation Xrotation Yrotation
        JOINT RightKnee
        {
            OFFSET   0.000047 -41.789100  -0.000896
            CHANNELS 3 Zrotation Xrotation Yrotation
            JOINT RightAnkle
            {
                OFFSET  -0.000117 -41.133300  -0.000248
                CHANNELS 3 Zrotation Xrotation Yrotation
                JOINT RightToe
                {
                    OFFSET   0.000000  -6.358970  14.674500
                    CHANNELS 3 Zrotation Xrotation Yrotation
                    End Site
                    {
                        OFFSET   0.000000   0.000000   3.913200
                    }
                }
            }
        }
    }
}
MOTION
Frames: 4
Frame Time:   0.016667
 -3.101630  89.395600  -0.901483  -0.317177  -5.535900   0.185719   1.187550   3.952410  -0.453235   2.415130   7.894420  -0.992258   2.588170   2.728610  -0.123263   4.278760   5.499010  -4.299140  -5.313350   2.945700   1.752200 -34.252900 -25.586100 -56.500600  31.553700 -27.101400 -85.407200   4.246000  38.139200  -7.550360  59.038700  54.332200 -108.298000  -2.383250   0.126893   0.005264   3.808380   0.064641  -0.011945 -10.250700   1.033750  -2.373480  -8.435760   0.161871   0.209052  -5.803510   0.068324   0.172233  -8.846410   0.854905  -1.373820  -5.738970   0.378872   0.340587  -4.104240   0.189951   0.293022  -5.589700   0.320079   2.131530  -3.698360   0.296227   0.246759  -2.708630   0.159054   0.211606  -8.965980  -0.740567   6.611740 -13.489800   0.166275   0.291227  -8.983980   0.022770   0.221073   9.931350   1.182290   4.728650  69.330400   7.824970  -2.692810  -3.019770   4.219260  15.627400 -13.686100 -16.119500  -4.692520 -31.828500  23.812400  62.835700  34.944100   0.028041  -0.019512  12.480700   0.014926   0.002129  34.217600   9.915700  14.209500  29.010000  -0.008872  -0.000827  20.307000   0.006477   0.002703  24.260400   5.029500   9.216240  42.551200  -0.003826   0.004597  28.339200  -0.002846   0.000819  29.310900   3.783450   6.704780  44.298800  -0.016537  -0.000529  29.503000  -0.011149   0.001738  39.367100  -0.892213  -1.087290  59.063300  -0.027659   0.025452  39.336100   0.000236   0.024464   2.333260   8.568580   2.543320   0.110289  -0.000445  12.231000  -2.292480  -2.726580   0.328266  -0.000000   0.000000   0.000000   0.229240   9.624840  -6.559390   1.942040   0.484346  -8.530960  -2.246450  -4.391980  -1.801920  -0.000000   0.000000   0.000000
 -3.100500  89.395800  -0.897695  -0.304114  -5.535930   0.195041   1.179360   3.944500  -0.448287   2.398250   7.878790  -0.981578   2.571970   2.728360  -0.122347   4.251950   5.498830  -4.263160  -5.306750   2.918830   1.762140 -34.261500 -25.586400 -56.482500  31.396600 -27.080200 -85.415500   4.539970  38.273900  -7.888150  59.031900  54.320400 -108.289000  -6.915110   0.176503   0.030900   1.542450   0.087425  -0.002919 -14.742900  -0.242792  -0.289760 -12.038200   0.105282   0.137524  -8.612050   0.063197   0.102646  -9.165770   0.183145   0.701071 -14.739200   0.378563   0.340302  -8.573500   0.187006   0.261407  -6.018010  -0.165125   3.671270 -11.776000   0.285658   0.242486  -6.720640   0.138999   0.173505 -12.866100  -1.530940   5.904960 -19.342000   0.087863   0.202662 -12.882100   0.040142   0.143844   9.942230   1.183050   4.727720  69.350600   7.847400  -2.692200  -2.991720   4.221210  15.550700 -13.682600 -16.111900  -4.682640 -31.822800  23.810800  62.848200  34.946400   0.034878  -0.024301  12.481200   0.018583   0.002199  34.193000   9.920490  14.226000  28.992800  -0.009218  -0.000758  20.294500   0.006557   0.002859  23.935200   5.029860   9.217270  42.510600  -0.002133   0.004550  28.312200  -0.002899   0.000891  29.298100   3.784410   6.710350  44.280000  -0.016001  -0.000452  29.490500  -0.010774   0.001686  39.354300  -0.888337  -1.083280  59.044000  -0.028351   0.025400  39.323300   0.000035   0.024520   2.319040   8.537060   2.525320   0.115884   0.056755  12.229500  -2.296400  -2.752570   0.337097  -0.000000   0.000000  -0.000000   0.212031   9.646340  -6.552670   1.951450   0.449532  -8.579670  -2.230870  -4.385350  -1.757930   0.000000   0.000000  -0.000000
 -3.098690  89.395900  -0.893970  -0.291556  -5.536050   0.203856   1.171530   3.937390  -0.444817   2.382190   7.864730  -0.973909   2.557610   2.727640  -0.121402   4.228310   5.497660  -4.226530  -5.304430   2.900130   1.771030 -34.274300 -25.597800 -56.459500  31.219200 -27.074800 -85.445000   5.603560  38.261100  -8.821850  59.025200  54.308500 -108.281000 -15.065300   0.199630   0.053826  -2.532660   0.097270   0.010928 -24.384800  -1.866010   2.024210 -19.932600   0.009132   0.015709 -14.708700   0.045903  -0.011127 -11.175400  -1.019280   3.621280 -30.300700   0.376401   0.338301 -17.344900   0.166386   0.176512  -9.044800  -1.344350   5.929160 -26.258200   0.227140   0.212574 -14.983600   0.089519   0.093528 -21.793300  -3.224340   5.746270 -32.795300  -0.035117   0.049275 -21.842500   0.050387   0.014244   9.953470   1.184510   4.726820  69.369200   7.867880  -2.689650  -2.965450   4.225360  15.477600 -13.679400 -16.109600  -4.671830 -31.815100  23.809100  62.860900  34.950500   0.037931  -0.026445  12.481400   0.020210   0.002269  34.171900   9.928990  14.251100  28.976900  -0.009495  -0.000685  20.283800   0.006639   0.003013  23.766200   5.030310   9.218130  42.480700   0.001006   0.004499  28.292200  -0.002953   0.000965  29.288300   3.785290   6.714320  44.265600  -0.012254  -0.000377  29.480900  -0.008147   0.001633  39.345300  -0.885678  -1.080600  59.030500  -0.028450   0.025035  39.314300  -0.000220   0.024528   2.305490   8.492840   2.508070   0.124991   0.135757  12.226500  -2.301180  -2.785310   0.346802   0.000000   0.000000   0.000000   0.189295   9.667970  -6.539200   1.960800   0.414724  -8.630190  -2.212440  -4.378700  -1.715500  -0.000000   0.000000   0.000000
 -3.097400  89.395900  -0.888232  -0.282943  -5.536210   0.207169   1.164350   3.931990  -0.440843   2.367440   7.853970  -0.965318   2.547460   2.722560  -0.120451   4.211560   5.487790  -4.195890  -5.304760   2.896620   1.770450 -34.311900 -25.629500 -56.453300  30.731000 -27.198300 -85.637400   7.883050  37.212700 -10.387900  59.034500  54.322700 -108.288000 -23.679500   0.141834   0.050264  -6.839780   0.067362   0.021183 -38.477300  -2.270120   2.292760 -31.464900  -0.092521  -0.113910 -23.517000   0.002359  -0.118286 -21.996300  -2.470090   4.930200 -47.544000   0.166054   0.148355 -28.482900   0.053504  -0.004999 -21.353000  -3.317210   7.265990 -43.707100   0.045916   0.065155 -26.263400  -0.008124  -0.035871 -35.554600  -6.040210   6.469490 -53.766600  -0.134970  -0.121454 -35.809000   0.035524  -0.118010   9.965910   1.187240   4.725650  69.386100   7.883720  -2.681250  -2.943730   4.243320  15.409900 -13.673400 -16.106300  -4.665260 -31.804700  23.803600  62.874400  34.955500   0.029020  -0.020209  12.481100   0.016136   0.002348  34.167600   9.936440  14.264900  28.973800  -0.009708  -0.000602  20.282500   0.006718   0.003169  23.767500   5.030840   9.218860  42.480200   0.004472   0.004440  28.291800  -0.003008   0.001042  29.280200   3.786240   6.716290  44.253600  -0.000954  -0.000307  29.472900  -0.000597   0.001583  39.340100  -0.884627  -1.079570  59.022800  -0.012678   0.009367  39.309100  -0.000521   0.010018   2.294530   8.476570   2.498140   0.132235   0.160579  12.217700  -2.301170  -2.792520   0.361319   0.000000   0.000000  -0.000000   0.171413   9.616960  -6.519160   1.958950   0.470214  -8.679060  -2.188100  -4.387330  -1.677460  -0.000000   0.000000   0.000000
